<?xml version="1.0" encoding="iso-8859-1"?>
<!-- Uploaded to: SVG Repo, www.svgrepo.com, Generator: SVG Repo Mixer Tools https://www.svgrepo.com/svg/277248/fountain-park -->
<svg height="800px" width="800px" version="1.1" id="Layer_1" xmlns="http://www.w3.org/2000/svg" xmlns:xlink="http://www.w3.org/1999/xlink" 
	 viewBox="0 0 511.984 511.984" xml:space="preserve">
<path style="fill:#4A89DC;" d="M202.665,63.662c-35.342,0-63.998,28.655-63.998,63.998c0,5.891,4.766,10.671,10.656,10.671
	s10.672-4.78,10.672-10.671c0-23.523,19.14-42.663,42.67-42.663c23.516,0,42.655,19.14,42.655,42.663v47.701
	c13.094-11.718,21.344-28.749,21.344-47.701C266.664,92.317,238.008,63.662,202.665,63.662z"/>
<path style="fill:#5D9CEC;" d="M309.318,0c-35.343,0-63.998,28.655-63.998,63.998v132.66h21.344v-84.967V63.998
	c0-23.523,19.14-42.663,42.654-42.663c23.531,0,42.671,19.14,42.671,42.663c0,5.89,4.78,10.663,10.671,10.663
	s10.656-4.773,10.656-10.663C373.316,28.655,344.661,0,309.318,0z"/>
<polygon style="fill:#37BC9B;" points="298.506,383.754 213.523,384.332 149.322,511.984 362.66,511.984 "/>
<path style="fill:#E6E9ED;" d="M255.992,330.646c76.576,0,138.668-62.068,138.668-138.652H117.324
	C117.324,268.578,179.415,330.646,255.992,330.646z"/>
<path style="fill:#48CFAD;" d="M255.992,447.986c106.027,0,191.994-85.967,191.994-191.994c0,0-109.185,28.999-191.994,0
	c-82.811-28.999-191.994,0-191.994,0C63.998,362.019,149.964,447.986,255.992,447.986z"/>
<g style="opacity:0.2;">
	<path style="fill:#FFFFFF;" d="M426.596,260.656c-2.391,100.316-81.731,181.58-181.275,187.033
		c3.531,0.188,7.094,0.297,10.672,0.297c106.027,0,191.994-85.967,191.994-191.994C447.986,255.992,439.955,258.125,426.596,260.656
		z"/>
</g>
</svg>